HIERARCHY
ROOT Hips
{
	OFFSET 0.00000 0.00000 0.00000
	CHANNELS 6 Xposition Yposition Zposition Zrotation Yrotation Xrotation 
	JOINT LHipJoint
	{
		OFFSET 0 0 0
		CHANNELS 3 Zrotation Yrotation Xrotation
		JOINT LeftUpLeg
		{
			OFFSET 1.56857 -1.73443 1.15205
			CHANNELS 3 Zrotation Yrotation Xrotation
			JOINT LeftLeg
			{
				OFFSET 2.39362 -6.57643 0.00000
				CHANNELS 3 Zrotation Yrotation Xrotation
				JOINT LeftFoot
				{
					OFFSET 2.50952 -6.89485 0.00000
					CHANNELS 3 Zrotation Yrotation Xrotation
					JOINT LeftToeBase
					{
						OFFSET 0.17171 -0.47178 1.88682
						CHANNELS 3 Zrotation Yrotation Xrotation
						End Site
						{
							OFFSET 0.00000 -0.00000 0.98146
						}
					}
				}
			}
		}
	}
	JOINT RHipJoint
	{
		OFFSET 0 0 0
		CHANNELS 3 Zrotation Yrotation Xrotation
		JOINT RightUpLeg
		{
			OFFSET -1.28153 -1.73443 1.15205
			CHANNELS 3 Zrotation Yrotation Xrotation
			JOINT RightLeg
			{
				OFFSET -2.26861 -6.23296 0.00000
				CHANNELS 3 Zrotation Yrotation Xrotation
				JOINT RightFoot
				{
					OFFSET -2.54143 -6.98254 0.00000
					CHANNELS 3 Zrotation Yrotation Xrotation
					JOINT RightToeBase
					{
						OFFSET -0.23309 -0.64041 1.93119
						CHANNELS 3 Zrotation Yrotation Xrotation
						End Site
						{
							OFFSET -0.00000 -0.00000 1.02013
						}
					}
				}
			}
		}
	}
	JOINT LowerBack
	{
		OFFSET 0 0 0
		CHANNELS 3 Zrotation Yrotation Xrotation
		JOINT Spine
		{
			OFFSET -0.07096 2.10460 -0.27878
			CHANNELS 3 Zrotation Yrotation Xrotation
			JOINT Spine1
			{
				OFFSET -0.00826 2.13662 -0.08279
				CHANNELS 3 Zrotation Yrotation Xrotation
				JOINT Neck
				{
					OFFSET 0 0 0
					CHANNELS 3 Zrotation Yrotation Xrotation
					JOINT Neck1
					{
						OFFSET 0.03239 1.77799 0.24435
						CHANNELS 3 Zrotation Yrotation Xrotation
						JOINT Head
						{
							OFFSET 0.01026 1.74194 -0.49664
							CHANNELS 3 Zrotation Yrotation Xrotation
							End Site
							{
								OFFSET 0.00170 1.83057 -0.19653
							}
						}
					}
				}
				JOINT LeftShoulder
				{
					OFFSET 0 0 0
					CHANNELS 3 Zrotation Yrotation Xrotation
					JOINT LeftArm
					{
						OFFSET 3.19178 1.35907 -0.31412
						CHANNELS 3 Zrotation Yrotation Xrotation
						JOINT LeftForeArm
						{
							OFFSET 4.85247 -0.00000 -0.00000
							CHANNELS 3 Zrotation Yrotation Xrotation
							JOINT LeftHand
							{
								OFFSET 3.55584 -0.00000 0.00000
								CHANNELS 3 Zrotation Yrotation Xrotation
								JOINT LeftFingerBase
								{
									OFFSET 0 0 0
									CHANNELS 3 Zrotation Yrotation Xrotation
									JOINT LeftHandIndex1
									{
										OFFSET 0.69320 -0.00000 0.00000
										CHANNELS 3 Zrotation Yrotation Xrotation
										End Site
										{
											OFFSET 0.55888 -0.00000 0.00000
										}
									}
								}
								JOINT LThumb
								{
									OFFSET 0 0 0
									CHANNELS 3 Zrotation Yrotation Xrotation
									End Site
									{
										OFFSET 0.56741 -0.00000 0.56741
									}
								}
							}
						}
					}
				}
				JOINT RightShoulder
				{
					OFFSET 0 0 0
					CHANNELS 3 Zrotation Yrotation Xrotation
					JOINT RightArm
					{
						OFFSET -3.28999 1.24191 -0.26899
						CHANNELS 3 Zrotation Yrotation Xrotation
						JOINT RightForeArm
						{
							OFFSET -4.64462 -0.00000 0.00000
							CHANNELS 3 Zrotation Yrotation Xrotation
							JOINT RightHand
							{
								OFFSET -3.40703 -0.00000 0.00000
								CHANNELS 3 Zrotation Yrotation Xrotation
								JOINT RightFingerBase
								{
									OFFSET 0 0 0
									CHANNELS 3 Zrotation Yrotation Xrotation
									JOINT RightHandIndex1
									{
										OFFSET -0.61958 -0.00000 0.00000
										CHANNELS 3 Zrotation Yrotation Xrotation
										End Site
										{
											OFFSET -0.49952 -0.00000 0.00000
										}
									}
								}
								JOINT RThumb
								{
									OFFSET 0 0 0
									CHANNELS 3 Zrotation Yrotation Xrotation
									End Site
									{
										OFFSET -0.50715 -0.00000 0.50715
									}
								}
							}
						}
					}
				}
			}
		}
	}
}
MOTION
Frames: 15
Frame Time: .0083333
24.9902 15.3771 -0.2992 515.9710 78.7107 513.3130 0.0000 0.0000 0.0000 -17.8696 5.4330 27.0754 4.6045 12.9240 39.0847 -0.0113 -2.7757 -1.1598 0.7511 -5.5356 -15.4426 0.0000 0.0000 0.0000 6.6889 2.9433 -35.9974 -4.7330 -13.0767 39.6562 -0.2039 -2.2372 -9.6576 -0.2027 2.8992 -7.9981 -7.8539 -2.5118 10.5393 1.3839 -3.9328 3.7493 6.3026 -1.9696 -1.3214 5.3177 2.1738 -25.4662 -2.4284 1.6855 21.3336 -1.4806 0.9055 11.1940 0.0000 -0.0000 0.0000 -64.8840 -18.2647 58.8652 104.2532 -59.2183 -72.3113 -0.0000 0.0000 -16.2308 38.2381 -28.2173 -20.4344 -7.1250 0.0000 -0.0000 4.4365 -4.2676 -4.7682 0.0000 -0.0000 0.0000 51.2508 -33.7505 33.9447 -34.5603 44.4956 -14.5044 0.0000 -0.0000 -8.7580 -20.9255 -21.4414 7.9570 7.1250 -0.0000 -0.0000 8.0448 -52.6076 -1.5141
25.2760 15.4529 -0.2807 524.0280 79.5652 520.5540 0.0000 0.0000 0.0000 -15.9801 5.0013 25.7374 5.4615 13.8853 42.7800 -0.0028 -2.8685 -1.8404 0.6498 -5.1565 -14.3556 0.0000 0.0000 0.0000 9.3980 3.7601 -33.4171 -4.6812 -13.0155 39.4265 -0.2767 -2.2703 -11.0353 -0.2824 3.4181 -9.4449 -6.3566 -2.4248 11.2641 1.7892 -3.6767 3.9720 5.8958 -1.8208 -1.6047 5.3510 2.1698 -25.3635 -2.1560 1.5990 21.2504 -1.3996 0.9054 11.1388 0.0000 0.0000 0.0000 -66.1246 -15.5994 59.8951 101.8468 -59.4630 -70.2411 -0.0000 0.0000 -15.7890 38.1558 -28.0487 -20.2763 -7.1250 0.0000 -0.0000 4.4288 -4.0499 -4.7443 0.0000 0.0000 0.0000 54.8249 -30.8163 28.1787 -31.8902 42.4595 -12.6666 0.0000 -0.0000 -5.4498 -20.7559 -20.8650 7.6874 7.1250 -0.0000 -0.0000 8.0182 -51.9819 -1.3857
25.5606 15.5418 -0.2548 534.7770 80.1483 530.6570 0.0000 0.0000 0.0000 -13.6616 4.4387 24.0841 6.3402 14.7501 46.3323 0.0054 -2.8159 -2.2782 0.2029 -2.9005 -8.0020 0.0000 0.0000 0.0000 12.4056 4.6856 -30.8800 -4.5533 -12.8624 38.8555 -0.3434 -2.6292 -12.3515 -0.3050 3.5508 -9.8162 -4.6034 -2.3973 11.8535 2.2071 -3.4452 4.0592 5.3495 -1.6796 -1.9578 5.4784 2.0404 -25.1455 -1.9422 1.3267 21.1310 -1.3867 0.8216 11.0431 0.0000 -0.0000 0.0000 -67.3571 -13.0071 60.7224 97.9862 -59.7576 -66.9106 -0.0000 0.0000 -15.2732 37.5312 -27.6999 -19.6510 -7.1250 0.0000 -0.0000 4.1531 -3.4477 -4.4066 0.0000 -0.0000 0.0000 58.4286 -27.8758 22.1619 -29.5432 40.4986 -11.1117 0.0000 -0.0000 -1.8599 -20.6441 -20.6111 7.5549 7.1250 -0.0000 -0.0000 8.0449 -51.7000 -1.3346
25.8337 15.6389 -0.2329 545.5630 80.3275 541.0460 0.0000 0.0000 0.0000 -11.4758 3.9034 21.9951 7.2003 15.4983 49.6280 0.0105 -2.5636 -2.4125 0.0711 -1.7198 -4.7320 0.0000 0.0000 0.0000 15.1768 5.4555 -28.5638 -4.3682 -12.6349 38.0165 -0.4141 -2.8951 -13.5641 -0.2444 3.1811 -8.7833 -2.8673 -2.3746 12.0986 2.5634 -3.1933 4.1510 4.7206 -1.5368 -2.1104 5.7230 1.8721 -24.4999 -2.0748 1.0737 20.5770 -1.5140 0.7041 10.7122 -0.0000 0.0000 0.0000 -68.5746 -10.8494 61.3670 92.6388 -59.9737 -62.2851 -0.0000 0.0000 -15.2929 36.9098 -27.8346 -19.3257 -7.1250 0.0000 -0.0000 3.7685 -3.3949 -3.9935 -0.0000 0.0000 0.0000 62.0475 -24.7343 15.8010 -27.4288 38.5851 -9.7654 0.0000 0.0000 1.3747 -20.8784 -20.6828 7.6727 7.1250 -0.0000 -0.0000 7.8356 -51.8149 -1.3216
26.1017 15.7473 -0.2290 550.6150 80.2854 545.8210 0.0000 0.0000 0.0000 -10.6854 3.4099 19.7143 8.0301 16.1413 52.6709 0.0181 -2.0584 -2.6038 0.0581 -1.5550 -4.2775 0.0000 0.0000 0.0000 16.6868 5.6620 -26.4122 -4.1781 -12.3937 37.1393 -0.4874 -2.7812 -14.4962 -0.1261 2.2895 -6.3064 -1.8944 -2.2863 12.2938 2.6312 -2.9526 4.1988 4.2185 -1.4055 -2.2412 5.3854 1.6909 -24.7230 -1.5674 0.8047 20.9134 -1.3191 0.6264 10.8622 0.0000 -0.0000 0.0000 -69.8710 -8.8459 61.8642 86.0977 -59.9424 -56.6212 -0.0000 0.0000 -15.3933 36.4408 -27.8487 -19.0302 -7.1250 0.0000 -0.0000 3.4976 -3.2593 -3.6975 0.0000 -0.0000 0.0000 65.5875 -21.5294 9.1384 -25.6429 36.8539 -8.6726 0.0000 0.0000 3.8673 -21.6874 -20.3073 7.8584 7.1250 -0.0000 -0.0000 6.9104 -51.5657 -1.1219
26.3803 15.8575 -0.2450 548.1380 79.9880 543.3790 0.0000 0.0000 0.0000 -11.7802 2.4999 17.2626 8.8084 16.6828 55.4251 0.0385 -2.2050 -3.5837 0.1140 -2.1769 -5.9947 0.0000 0.0000 0.0000 16.5234 4.8055 -24.6449 -3.9561 -12.1017 36.0927 -0.5436 -2.2397 -14.9202 -0.0344 1.1964 -3.2893 -1.9878 -2.2504 12.0684 2.3508 -2.9311 4.1927 3.9632 -1.3985 -2.1379 5.0864 1.5170 -24.2884 -1.1766 0.6002 20.6296 -1.1597 0.5570 10.6685 0.0000 0.0000 0.0000 -71.3113 -7.0178 62.0580 78.3111 -59.4774 -49.8949 -0.0000 0.0000 -15.1384 36.4034 -27.7840 -18.9684 -7.1250 0.0000 -0.0000 3.4903 -3.1751 -3.6849 0.0000 0.0000 0.0000 69.0539 -18.3979 2.5486 -24.4540 35.6406 -7.9695 0.0000 0.0000 5.1322 -22.6307 -19.5817 7.9539 7.1250 -0.0000 -0.0000 5.7589 -50.9676 -0.8491
26.6185 15.9808 -0.2308 552.2270 79.9664 547.6220 0.0000 0.0000 0.0000 -11.0953 1.7779 14.1303 9.5919 17.1739 58.1154 0.0452 -2.6448 -3.9423 0.1472 -2.4728 -6.8143 0.0000 0.0000 0.0000 17.8188 5.1496 -22.9409 -3.7162 -11.7729 34.9334 -0.5935 -2.4416 -15.6423 -0.0342 1.1930 -3.2799 -1.3648 -2.0994 12.0934 2.4646 -2.6561 4.0746 3.6989 -1.2551 -2.3226 5.1533 1.2917 -24.2439 -1.4198 0.3305 20.7748 -1.3029 0.4116 10.7042 -0.0000 -0.0000 0.0000 -72.9046 -5.5323 61.8541 69.5979 -58.3673 -42.4281 -0.0000 0.0000 -14.6942 36.4209 -27.5957 -18.8696 -7.1250 0.0000 -0.0000 3.5413 -2.9704 -3.7270 -0.0000 -0.0000 0.0000 72.4706 -15.3426 -3.4750 -23.8849 35.0423 -7.6404 0.0000 0.0000 4.4216 -23.5269 -19.2149 8.1542 7.1250 -0.0000 -0.0000 4.7706 -50.7324 -0.6752
26.8675 16.1005 -0.2261 554.0990 79.9557 549.6410 0.0000 0.0000 0.0000 -10.9362 1.1302 11.2162 10.2126 17.5277 60.1967 0.0474 -3.0532 -4.1296 0.1609 -2.5842 -7.1232 0.0000 0.0000 0.0000 18.5872 4.9895 -21.2410 -3.4511 -11.3917 33.6127 -0.6559 -2.3286 -16.3167 -0.1275 2.3020 -6.3410 -1.0187 -1.8852 12.0322 2.4879 -2.3370 3.9120 3.4866 -1.0939 -2.4964 4.9010 1.0632 -24.1509 -1.4012 0.1101 20.9965 -1.2913 0.2984 10.7598 -0.0000 0.0000 0.0000 -74.6016 -4.1597 61.4784 60.7416 -56.5043 -34.9588 -0.0000 0.0000 -14.3513 36.9212 -27.4705 -19.1171 -7.1250 0.0000 -0.0000 3.8553 -2.9906 -4.0602 -0.0000 0.0000 0.0000 75.7048 -12.6720 -8.3814 -23.8824 35.0397 -7.6389 0.0000 0.0000 1.1348 -24.5752 -19.7622 8.7898 7.1250 -0.0000 -0.0000 3.8662 -51.4968 -0.6194
27.1125 16.2204 -0.2239 557.6440 79.9056 553.2840 0.0000 0.0000 0.0000 -10.4028 0.5422 8.3468 10.7305 17.8007 61.9032 0.0456 -3.6443 -4.2705 0.1793 -2.7277 -7.5215 0.0000 0.0000 0.0000 19.7037 4.7752 -19.4610 -3.1605 -10.9504 32.1128 -0.7027 -2.2269 -16.7941 -0.1847 2.7678 -7.6330 -0.4082 -1.6626 12.0286 2.6493 -1.9670 3.6836 3.2653 -0.9064 -2.7740 4.3097 0.7416 -24.0197 -1.2334 -0.1508 21.3724 -1.1771 0.1614 10.8647 0.0000 -0.0000 0.0000 -76.4002 -2.8938 60.8660 52.4101 -53.9225 -28.1107 -0.0000 0.0000 -14.4887 37.3088 -27.6378 -19.4683 -7.1250 0.0000 -0.0000 4.0400 -3.3046 -4.2766 0.0000 -0.0000 0.0000 78.6438 -10.2722 -12.2562 -24.1519 35.3244 -7.7942 0.0000 -0.0000 -3.7272 -25.3587 -20.7959 9.5518 7.1250 -0.0000 -0.0000 3.3433 -52.7453 -0.6378
27.3546 16.3415 -0.2236 559.8450 79.8702 555.6090 0.0000 0.0000 0.0000 -10.1771 -0.0256 5.4558 11.1299 17.9981 63.2027 0.0383 -4.1827 -4.2638 0.3015 -3.5303 -9.7587 0.0000 0.0000 0.0000 20.4946 4.3749 -17.5617 -2.8162 -10.3914 30.2538 -0.7222 -2.0925 -16.9425 -0.1655 2.6211 -7.2255 -0.1244 -1.4727 11.9413 2.7971 -1.6804 3.4771 3.2212 -0.7636 -2.9629 3.8997 0.5193 -23.8018 -1.3238 -0.2680 21.6984 -1.1628 0.0697 10.9408 -0.0000 0.0000 0.0000 -78.2524 -1.7847 59.7919 44.9806 -50.7590 -22.2237 -0.0000 0.0000 -15.2167 37.3265 -27.3419 -19.3017 -7.1250 0.0000 -0.0000 4.1159 -2.9777 -4.3351 -0.0000 0.0000 0.0000 81.2766 -7.8327 -15.3092 -24.4912 35.6794 -7.9913 0.0000 -0.0000 -8.9981 -25.6047 -21.4248 9.9290 7.1250 -0.0000 -0.0000 3.2623 -53.4657 -0.6798
27.6073 16.4600 -0.2453 559.5720 80.1495 555.5110 0.0000 0.0000 0.0000 -10.7628 -0.4169 2.6902 11.3465 18.1005 63.9017 0.0364 -4.2949 -4.2559 0.5570 -4.7807 -13.2840 0.0000 0.0000 0.0000 20.5338 3.4673 -15.7720 -2.4878 -9.8157 28.3818 -0.7405 -1.4231 -16.8305 -0.1788 2.7235 -7.5100 -0.0848 -1.2238 11.6560 2.7323 -1.3622 3.3088 3.0812 -0.6092 -3.0030 3.5358 0.3016 -23.5792 -1.3966 -0.4020 21.9462 -1.1516 -0.0253 10.9871 0.0000 -0.0000 0.0000 -79.9742 -0.7899 58.3523 38.4133 -47.1012 -17.2677 -0.0000 0.0000 -16.0237 37.6498 -27.5670 -19.6483 -7.1250 0.0000 -0.0000 4.2505 -3.3376 -4.5029 0.0000 -0.0000 0.0000 83.7237 -6.9755 -14.8854 -25.9893 37.1982 -8.8812 0.0000 -0.0000 -16.8146 -26.7902 -22.5953 10.9791 7.1250 -0.0000 -0.0000 2.3491 -54.9596 -0.5748
27.8491 16.5722 -0.2700 559.2550 80.1386 555.4340 0.0000 0.0000 0.0000 -11.3134 -1.2757 -0.2616 11.5998 18.2163 64.7145 0.0449 -4.6324 -4.6639 0.6725 -5.2440 -14.6057 0.0000 0.0000 0.0000 20.5277 2.1377 -14.2530 -2.1917 -9.2544 26.5944 -0.7630 -0.6841 -16.7661 -0.2567 3.2600 -9.0035 0.1924 -1.0373 11.4578 2.6495 -1.0977 3.0450 2.8005 -0.4814 -3.1912 3.3652 -0.0628 -23.4557 -1.7844 -0.7261 22.4137 -1.3205 -0.2274 11.1264 -0.0000 -0.0000 0.0000 -81.4737 0.0890 56.5831 32.6962 -43.0952 -13.2140 -0.0000 0.0000 -16.3502 37.8559 -27.7926 -19.9209 -7.1250 0.0000 -0.0000 4.3171 -3.6602 -4.5966 -0.0000 -0.0000 0.0000 85.3777 -5.7217 -14.2166 -25.8643 37.0744 -8.8057 0.0000 -0.0000 -23.1296 -27.5239 -22.6662 11.3546 7.1250 -0.0000 -0.0000 1.5840 -55.1893 -0.3964
28.0876 16.6860 -0.2885 560.3850 80.3262 556.6800 0.0000 0.0000 0.0000 -11.4732 -1.9800 -3.0284 11.7753 18.2941 65.2749 0.0492 -5.2552 -5.0767 0.4964 -4.5173 -12.5367 0.0000 0.0000 0.0000 20.8072 1.2805 -12.4756 -1.8977 -8.6498 24.7057 -0.7558 -0.1846 -16.4985 -0.2255 3.0566 -8.4364 0.5021 -0.7205 11.4541 2.6318 -0.6472 2.7734 2.5475 -0.2609 -3.4974 3.0994 -0.2853 -23.3386 -1.8949 -0.8884 22.9435 -1.3476 -0.3266 11.2985 0.0000 -0.0000 0.0000 -82.7901 1.0605 54.4891 28.0445 -39.1572 -10.1518 -0.0000 0.0000 -15.8535 37.2494 -26.4580 -18.7159 -7.1250 0.0000 -0.0000 4.2645 -1.9551 -4.4197 0.0000 -0.0000 0.0000 86.8722 -5.9903 -11.2221 -27.1297 38.3026 -9.5794 0.0000 -0.0000 -28.6379 -27.1947 -22.7782 11.2510 7.1250 -0.0000 -0.0000 1.9691 -55.2410 -0.4952
28.3274 16.7998 -0.3017 561.1650 80.6976 557.5070 0.0000 0.0000 0.0000 -11.6465 -2.5530 -5.4693 11.7451 18.2808 65.1785 0.0391 -5.6478 -5.0211 0.2062 -2.9240 -8.0673 0.0000 0.0000 0.0000 20.9739 0.7808 -10.5293 -1.6211 -8.0277 22.7982 -0.7080 0.0565 -15.8844 -0.0332 1.1755 -3.2319 0.5787 -0.3005 11.6401 2.5660 -0.0840 2.5384 2.3590 0.0161 -3.8679 3.0092 -0.4695 -23.4719 -1.9346 -1.0921 23.4900 -1.3875 -0.4205 11.5246 0.0000 0.0000 0.0000 -83.8946 2.1260 51.7717 24.4642 -35.6513 -7.9755 -0.0000 0.0000 -15.4395 36.3992 -25.7543 -17.7623 -7.1250 0.0000 -0.0000 3.9187 -0.8932 -3.9886 0.0000 0.0000 0.0000 87.3792 -5.8823 -7.1665 -26.9355 38.1176 -9.4593 0.0000 -0.0000 -30.8850 -25.2279 -21.8617 9.9510 7.1250 -0.0000 -0.0000 3.7800 -53.8590 -0.8242
28.5748 16.9062 -0.3239 561.2990 81.1260 557.6430 0.0000 0.0000 0.0000 -12.0231 -3.0144 -7.6210 11.5463 18.1922 64.5433 0.0421 -5.6716 -5.1099 0.0987 -2.0261 -5.5778 0.0000 0.0000 0.0000 20.9205 0.1347 -8.6046 -1.3815 -7.4374 21.0180 -0.7009 0.6295 -15.6167 -0.0000 -0.0306 0.0841 0.6953 0.1464 11.7626 2.3673 0.5117 2.4631 1.9973 0.3071 -4.0331 2.8573 -0.7511 -24.0123 -1.7185 -1.5051 24.0231 -1.3618 -0.5816 11.8232 -0.0000 0.0000 0.0000 -84.5909 3.0628 49.0140 21.7858 -32.7341 -6.4696 -0.0000 0.0000 -14.9310 35.3460 -24.2295 -16.2286 -7.1250 0.0000 -0.0000 3.6006 1.1428 -3.5351 -0.0000 0.0000 0.0000 87.5524 -5.5242 -2.6278 -26.6010 37.7960 -9.2535 0.0000 -0.0000 -30.1995 -22.6247 -21.6754 8.7510 7.1250 -0.0000 -0.0000 6.4035 -53.1634 -1.2901
